# xmcd
#
# Track frame offsets:
#	150
#	69507
#	107732
#	152262
#	193517
#	234102
#
# Disc length: 3839 seconds
#
# Revision: 1
# Processed by: cddbd v1.4PL0 Copyright (c) Steve Scherf et al.
# Submitted via: EasyCDDAExtractor 5.0.7
#
DISCID=3c0efd06
DTITLE=Various Artist - Tan Co Giao Duyen 3 - Mua Bui
DYEAR=1900
DGENRE=VongCo
TTITLE0=Kim Tu Long and Thoai My - Chiec Ao Ba Ba
TTITLE1=Thanh Hang - Moi Duyen Que
TTITLE2=Vu Linh - Mua Tren Pho Hue
TTITLE3=Ngoc Huyen and Luong Tuan - Hoa Muoi Goo
TTITLE4=Thanh Thanh Tam - Huong Tham
TTITLE5=Kim Tu Long and Tai Linh - Mua Bui
EXTD=
EXTT0=
EXTT1=
EXTT2=
EXTT3=
EXTT4=
EXTT5=
PLAYORDER=
